<svg aria-hidden="true" style="position: absolute; width: 0; height: 0; overflow: hidden;" version="1.1" xmlns="http://www.w3.org/2000/svg" xmlns:xlink="http://www.w3.org/1999/xlink">
<defs>
<symbol id="icon-logo" viewBox="0 0 32 32">
<path  style="fill: var(--color1, #fff)" d="M13.088 3.366c-0.87 0.28-1.603 0.779-1.786 1.214l-0.077 0.183-1.206-0.006-0.156-0.322c-0.119-0.245-0.223-0.358-0.439-0.476l-0.282-0.154h-2.035c-2.67 0-3.006 0.133-3.006 1.189v0.297l-0.454 0.222c-1.674 0.818-2.985 2.433-3.503 4.314l-0.144 0.525v6.454c0 7.047-0.021 6.592 0.35 7.589 0.832 2.235 2.762 3.852 5.121 4.294 0.793 0.149 20.264 0.149 21.057 0 2.359-0.441 4.289-2.058 5.121-4.294 0.371-0.997 0.35-0.542 0.35-7.589v-6.454l-0.139-0.494c-0.726-2.585-2.586-4.346-5.215-4.943-0.393-0.089-0.909-0.111-3.173-0.135l-2.703-0.028-0.074-0.177c-0.183-0.436-0.97-0.961-1.837-1.225-0.683-0.208-5.114-0.195-5.77 0.016zM25.638 6.926c1.915 0.194 3.408 1.363 4.056 3.178l0.176 0.494 0.018 5.96c0.020 6.815 0.041 6.497-0.498 7.592-0.607 1.234-1.83 2.167-3.197 2.439-0.732 0.145-19.659 0.145-20.389 0-1.379-0.276-2.598-1.227-3.24-2.528-0.489-0.993-0.475-0.76-0.455-7.503l0.018-5.96 0.195-0.539c0.625-1.728 2.153-2.944 3.931-3.128 0.759-0.078 18.61-0.083 19.383-0.005v0.001zM6.091 7.609c-2.008 0.29-3.304 1.924-3.304 4.166v0.83h4.296l0.144-0.293c0.636-1.296 1.915-2.701 3.292-3.616 0.515-0.342 1.872-1.031 2.032-1.031 0.037 0 0.067-0.028 0.067-0.062 0-0.076-5.997-0.072-6.527 0.005v0.001zM19.382 7.587c0 0.029 0.106 0.090 0.235 0.135 1.965 0.681 4.359 2.819 5.176 4.622l0.119 0.262h4.302v-0.83c0-2.093-0.968-3.465-2.881-4.085-0.376-0.122-6.951-0.219-6.951-0.103l-0.001-0.001zM15.405 8.011c-7.299 0.703-10.841 8.612-6.386 14.259 4.926 6.242 15.222 3.139 15.867-4.783 0.432-5.305-4.245-9.979-9.482-9.476zM17.065 10.205c4.204 0.595 6.825 5.131 5.225 9.044-1.843 4.508-7.757 5.664-11.145 2.178-4.495-4.625-0.532-12.136 5.92-11.222zM15.278 11.246c-3.783 0.527-5.964 4.336-4.47 7.807 1.716 3.983 7.47 4.477 9.912 0.851 2.672-3.968-0.692-9.319-5.442-8.658zM17.739 12.102c0.73 0.224 1.277 0.747 1.29 1.233 0.029 1.121-2.242 1.086-3.002-0.047-0.578-0.861 0.451-1.573 1.712-1.186zM14.529 20.643c0.692 0.144 1.722 0.768 1.722 1.043 0 0.641-2.326 0.227-3.005-0.535-0.469-0.527 0.102-0.754 1.283-0.508zM26.824 23.039c-1.292 0.395-1.042 2.168 0.305 2.163 1.37-0.004 1.472-1.995 0.112-2.18-0.138-0.019-0.325-0.011-0.417 0.017v-0.001z"></path>
</symbol>
</defs>
</svg>
